<svg xmlns="http://www.w3.org/2000/svg" width="85" height="85" viewBox="0 0 85 85"><defs><style>.a{fill:#fe4518;stroke:#fe4518;stroke-width:2px;}</style></defs><g transform="translate(-141.5 -233)"><g transform="translate(142.5 234)"><path class="a" d="M122.046,224a23.608,23.608,0,0,0-17.583,7.818,1.8,1.8,0,1,0,2.688,2.407,20.074,20.074,0,0,1,29.79,0,1.8,1.8,0,0,0,2.688-2.407A23.609,23.609,0,0,0,122.046,224Z" transform="translate(-80.546 -173.478)"/><path class="a" d="M41.5,0A41.5,41.5,0,1,0,83,41.5,41.546,41.546,0,0,0,41.5,0Zm0,79.391A37.891,37.891,0,1,1,79.391,41.5,37.934,37.934,0,0,1,41.5,79.391Z"/><path class="a" d="M224.239,128a1.8,1.8,0,0,0-1.8,1.8,5.413,5.413,0,1,1-10.826,0,1.8,1.8,0,1,0-3.609,0,9.022,9.022,0,1,0,18.043,0A1.8,1.8,0,0,0,224.239,128Z" transform="translate(-161.087 -99.13)"/><path class="a" d="M98.043,129.8a1.8,1.8,0,1,0-3.609,0,5.413,5.413,0,1,1-10.826,0,1.8,1.8,0,1,0-3.609,0,9.022,9.022,0,0,0,18.043,0Z" transform="translate(-61.957 -99.13)"/></g></g></svg>