<svg xmlns="http://www.w3.org/2000/svg" xmlns:xlink="http://www.w3.org/1999/xlink" width="173.342" height="74.338" viewBox="0 0 173.342 74.338"><defs><style>.a{fill:url(#a);}</style><linearGradient id="a" x1="0.5" x2="0.5" y2="1" gradientUnits="objectBoundingBox"><stop offset="0" stop-color="#fe4518"/><stop offset="1" stop-color="#fe4518"/></linearGradient></defs><g transform="translate(-100.857 -296.5)"><g transform="translate(100.857 296.5)"><path class="a" d="M-1687.675,429.522q0-.745,0-1.49c0-10.363.352-10.627,10.527-9.874,2.87.212,4.265,1.357,4.242,4.247q-.047,5.96,0,11.92c.023,3.375,1.379,6.07,4.971,6.272,3.973.224,5.456-2.689,5.641-6.156.193-3.632.166-7.287,0-10.922-.168-3.719,1.105-5.784,5.177-5.324,9.37-.184,9.364-.323,9.348,8.872,0,2.483-.091,4.976.094,7.447.244,3.258,1.607,6.046,5.266,6.074,3.6.028,5.065-2.57,5.409-5.918,1.184-11.507,6.33-20.778,15.812-27.488,13.24-9.37,32.038-8.115,44.17,2.692,2.973,2.648,2.946,4.454-.135,7.083-6.31,5.384-6.18,5.536-13.257,1.489-13.4-7.666-29.912,1.089-31.743,16.836-1.332,11.455-6.662,18.379-16.757,19.863-4.127.607-8.6-1.239-12.931-1.86-1.844-.264-4.2-1.034-5.521-.239-13.2,7.938-31.625-1.84-30.325-20.544C-1687.615,431.513-1687.675,430.515-1687.675,429.522Z" transform="translate(1687.749 -400.89)"/><path class="a" d="M-1251.715,532.641v1.491c0,10.3-.455,10.646-10.606,9.811-2.967-.244-4.1-1.552-4.045-4.386.073-3.808.077-7.62-.01-11.427-.079-3.481-1.322-6.5-5.263-6.543s-5.283,2.87-5.346,6.411c-.068,3.808-.123,7.621-.021,11.427.085,3.175-1.347,4.339-4.458,4.5-10.181.539-10.2.6-10.282-9.63-.018-2.318-.027-4.638-.122-6.954-.131-3.186-1.53-5.624-4.916-5.777-3.365-.152-5.055,2.029-5.385,5.28a38.58,38.58,0,0,1-8.323,20.912,36.072,36.072,0,0,1-51.064,5.051c-4.158-3.481-4.17-4.323-.159-7.951a16.087,16.087,0,0,0,2.479-2.428c2.278-3.223,4.22-3.411,7.591-.791,13.422,10.432,31.6,2.893,34.368-13.967.48-2.927.733-5.978,1.774-8.71,4.02-10.545,16.069-15.137,26.807-10.814,2.291.922,5.548,1.284,7.717.374,14.385-6.039,28.2,2.159,29.167,17.663.133,2.145.018,4.3.018,6.457Z" transform="translate(1425.057 -486.791)"/><circle class="a" cx="6.125" cy="6.125" r="6.125" transform="translate(80.546 31.043)"/></g></g></svg>